<?xml version="1.0" encoding="utf-8"?>
<!-- Generator: Adobe Illustrator 21.0.0, SVG Export Plug-In . SVG Version: 6.00 Build 0)  -->
<svg version="1.1" id="圖層_1" xmlns="http://www.w3.org/2000/svg" xmlns:xlink="http://www.w3.org/1999/xlink" x="0px" y="0px"
	 viewBox="0 0 283.5 283.5" style="enable-background:new 0 0 283.5 283.5;" xml:space="preserve">
<style type="text/css">
	.st0{fill:#FF0000;}
	.st1{fill:#FFFFFF;}
</style>
<rect x="0" y="3.5" class="st0" width="283.5" height="276.4"/>
<path d="M11.8,15.4h259.8v252.8H11.8V15.4z"/>
<g>
	<path class="st1" d="M185.7,102c0-0.9,0.4-1.4,1.4-1.4h18.5c0.9,0,1.4,0.4,1.4,1.4v93.2c0,0.9-0.2,1.4-1.4,1.4h-18.3
		c-1.2,0-1.5-0.6-1.5-1.5V102L185.7,102L185.7,102z M184.4,75.2c0-7.6,5.3-12,12-12c7.2,0,12,4.8,12,12c0,7.8-5.1,12-12.3,12
		C189.3,87.3,184.4,83,184.4,75.2z"/>
	<path class="st1" d="M168.2,195.1L130.6,67.7c-0.2-0.9-0.6-1.2-1.4-1.2h-24.8c-0.6,0-0.9,0.4-0.9,1.2c-0.2,5.8-0.6,7.7-1.2,9.8
		L68.7,194.9c-0.2,1.4,0,1.8,1.2,1.8h17.4c1.2,0,1.5-0.2,1.8-1.2l9.3-35.4h37.8l9.7,35.5c0.2,0.8,0.8,1.1,1.8,1.1h19.6
		C168.2,196.7,168.4,196.1,168.2,195.1z M103.2,140.9c5-18.3,11.2-41.7,13.7-55.5h0.2c3,13.8,10.8,42.4,14,55.5H103.2z"/>
</g>
</svg>
