<?xml version="1.0" encoding="utf-8"?>
<!-- Generator: Adobe Illustrator 21.0.0, SVG Export Plug-In . SVG Version: 6.00 Build 0)  -->
<svg version="1.1" id="圖層_1" xmlns="http://www.w3.org/2000/svg" xmlns:xlink="http://www.w3.org/1999/xlink" x="0px" y="0px"
	 viewBox="0 0 283.5 283.5" style="enable-background:new 0 0 283.5 283.5;" xml:space="preserve">
<style type="text/css">
	.st0{fill:#FFFFFF;}
</style>
<path class="st0" d="M231.2,0H50.7C22.3,0-1,22.9-1,51.3v180.5c0,28.4,22.9,51.6,51.3,51.7h180.5c28.4,0,51.6-22.9,51.7-51.3V51.7
	C282.5,23.3,259.6,0,231.2,0z M197.9,69.4l-20.3,0.2c-7.6,0-12.6,1.6-15.2,4.7c-2.6,3.1-3.9,7.7-3.9,14v24.6h38.1l-5,38.5h-33V250
	h-39.9v-98.8H85.6v-38.5h33.2V84.3c0-16.2,4.5-28.7,13.5-37.5c9-8.9,21.1-13.3,36.1-13.3c12.7,0,22.5,0.5,29.5,1.5V69.4z"/>
</svg>
