<?xml version="1.0" encoding="utf-8"?>
<!-- Generator: Adobe Illustrator 21.0.0, SVG Export Plug-In . SVG Version: 6.00 Build 0)  -->
<svg version="1.1" id="圖層_1" xmlns="http://www.w3.org/2000/svg" xmlns:xlink="http://www.w3.org/1999/xlink" x="0px" y="0px"
	 viewBox="0 0 283.5 283.5" style="enable-background:new 0 0 283.5 283.5;" xml:space="preserve">
<style type="text/css">
	.st0{fill:#FFFFFF;}
</style>
<g>
	<polygon class="st0" points="144,139.5 75.2,84.9 212.8,85.2 	"/>
	<path class="st0" d="M160.5,154.8l55.7-45.5v87.9H67.7v-89.8l60.1,47.2C147.3,169.9,141.7,170.2,160.5,154.8z"/>
	<path class="st0" d="M232.2,0H51.7C23.3,0,0,22.9,0,51.3v180.5c0,28.4,22.9,51.6,51.3,51.7h180.5c28.4,0,51.6-22.9,51.7-51.3V51.7
		C283.5,23.3,260.6,0,232.2,0z M238.3,193.3c0,12-9.8,21.7-21.7,21.7H68.3c-12,0-21.7-9.8-21.7-21.7V89.4c0-12,9.8-21.7,21.7-21.7
		h148.3c12,0,21.7,9.8,21.7,21.7V193.3z"/>
</g>
</svg>
