<?xml version="1.0" encoding="utf-8"?>
<!-- Generator: Adobe Illustrator 21.0.0, SVG Export Plug-In . SVG Version: 6.00 Build 0)  -->
<svg version="1.1" id="GMT" xmlns="http://www.w3.org/2000/svg" xmlns:xlink="http://www.w3.org/1999/xlink" x="0px" y="0px"
	 viewBox="0 0 600 300" style="enable-background:new 0 0 600 300;" xml:space="preserve">
<style type="text/css">
	.st0{display:none;}
	.st1{fill:#FF0000;stroke:#FF0000;stroke-miterlimit:10;}
	.st2{fill:#FF0000;}
	.st3{fill:#FF0000;stroke:#FF0000;stroke-width:2;stroke-miterlimit:10;}
</style>
<rect x="115.7" y="45.3" class="st0" width="368.5" height="245.7"/>
<g>
	<g>
		<g>
			<path class="st1" d="M508.5,180.8H551c7.9-11.2,12.6-16.7,14-16.7c1.6,0,5.3,2.9,11.3,8.8c6,5.9,9,9.4,9,10.6
				c0,1.6-0.5,2.4-1.6,2.4h-64.2c12.9,15.2,33.7,22.7,62.3,22.7c2,0,3.6-0.1,4.8-0.2l-0.2,3.4c-4.8,1.2-7.6,8-8.4,20.3
				c-0.4,4-1.8,6-4.3,6c-7.9,0-17.9-4.7-30.1-14c-12.1-9.3-23.7-22-30.3-38.1H509c0,0,7.7,63.8,8.4,81.5c0,4-11.5,27.6-15.5,27.6
				s-15.7-24.8-15.7-27.6c0.5-16.9,7.8-66.6,7.8-66.6c-17.1,20.3-44.6,33.7-75.2,40.1l-1.3-2.8c25.5-14.6,44.1-32,56-52.2H438
				c-5.3,0-10.2,0.3-14.7,1l-3.2-8.2c8.7,1.5,21.5,2.2,38.2,2.2H495l0.7-17.5h-20.6v3.6c0,4.1-5.1,6.2-15.4,6.2c-5,0-7.5-1.3-7.5-4
				c0.5-8.6,0.7-15.6,0.7-20.9v-3.8c0-8.5-0.4-15.9-1.3-22.1c11.2,2.4,19.7,4.6,25.3,6.6h49c6.6-6.6,10.6-10,12-10
				c1,0,4.3,1.8,10,5.4c1.4-2.9,2.7-6.7,3.9-11.4H447.3c0,0.4,0,0.9,0,1.6c0,17.7-5.7,26.5-17.2,26.5c-8,0-12-3.9-12-11.6
				c0-6,2.4-10.1,7.2-12.4c10.5-4.7,16-12.4,16.5-23.1h3.2c1.2,6.2,1.9,10.8,2,13.8h43.2l60.3-0.2c7.1-7.3,11.2-11,12.6-11
				c1.7,0,5.8,2.7,12.4,8.2c6.5,5.5,9.7,9,9.7,10.8c0,2.1-2.1,3.2-6.3,3.2c-0.4,0-0.9,0-1.6,0c-0.4,0-0.7,0-0.9,0
				c-0.5,0-0.8,0-0.9,0c-7.5,3.9-15.1,6.8-22.6,8.8c2.6,2.1,3.9,3.9,3.9,5.2c0,1.2-0.4,2.2-1.1,3c-3.4,2.8-5,4.7-5,5.8v6.2
				c0,1.7,0.2,7.4,0.7,16.9v0.2c0,4.3-5,6.4-15.1,6.4c-5.4,0-8.1-1.3-8.1-4v-4.2h-20.6L508.5,180.8z M528.2,133.7h-53.1v24.3h53.1
				V133.7z"/>
			<g>
				<path class="st2" d="M563.3,75.1c-13.7,28.3-47.6,21.8-59.1,1.9c-0.9-1.6-2.1-3.7-3-5.9c-1.4,1.9-2.9,3.6-4.1,5
					c-15.1,16.3-46.5,24-54.3-7.1c-0.8-3.1-0.9-10.5,0.3-13.5c1.3-3.2,2-2,3.4,0.6c3.6,6.3,10.6,14,17.8,10.9
					c11-4.7,17.3-34.1,30.6-26.8c3.2,1.8,6.4,6.7,8.2,12.2c2.8-4.9,6.9-8.9,10.4-9.8c14.4-3.7,17.8,18.6,27.6,26
					c6.4,4.8,16.5-1.9,21.2-7.2c1.9-2.1,2.8-3.1,3.5,0.4C566.3,65.1,564.7,72.2,563.3,75.1z"/>
			</g>
		</g>
		<g>
			<path class="st3" d="M172.1,125c-6.6-5.5-10.7-8.2-12.2-8.2c-1.7,0-6.3,4.1-14,12.2l-35.8-0.1c0.2-0.2,0.4-0.5,0.6-0.7
				c1.5-2.1,1.8-5.1,1.8-7.6c0-3.2-1.3-6.3-3.3-8.6c-3.9-4.5-10.4-6.3-16.6-6.9c-1.5-0.1-3-0.2-4.4-0.2c1.4-3,2.5-6.1,3.5-9.3
				c1.1-3.6,6.6-5.3,9.5-2.7c0.2,0.2,0.5,0.4,0.6,0.7c1.4,3.9,2.8,7.9,4.3,11.9c1.7,4.5,4.5,8.3,8.1,11.5c1.1,1,2.6,1.8,4.1,2.1
				c8.3,1.7,16.6,1.6,24.9-0.2c5.6-1.2,8.8-4.4,9.8-9.9c0.8-4.4,1.7-8.8,2.3-13.2c0.4-3.4,1.6-6.1,4.5-8c0.7-0.4,1.3-1.4,1.4-2.2
				c0.2-3.6-0.4-4.5-3.9-5c-10.6-1.6-21.2-2.1-31.9-1.8c-5.5,0.1-11,0.5-16.4,2c6.3-4.8,11-9.7,14.2-13.6h56.3c1.3,0,2-0.8,2-2.4
				c0-1.2-2.9-4.6-8.8-10.4c-5.9-5.7-9.5-8.6-10.8-8.6c-1,0-4.9,5.5-11.7,16.4h-23.5c1.9-2.5,3.5-5.1,4.8-7.6c0.1-0.3,2-0.7,5.6-1.4
				c1.9-0.3,2.9-1.2,2.9-2.8c0-1.7-10-5.2-30-10.6c-3.2,24-11.9,35-19.1,44.5c-1.2-2-3.1-2.9-5.2-3.5c-7.3-2.1-14.7-2.2-23.2-2.3
				c-5.5,0.1-11.3,0.3-17.3,0.9c3.5-3.8,6.5-7.9,9.1-12.3L99,66.7c1.3,0,2-0.8,2-2.4c0-1.1-2.6-4.4-7.7-10c-5.1-5.6-8.4-8.4-9.7-8.4
				c-1.2,0-5.4,5.3-12.6,16H57.7c1.7-2.4,3.2-5.2,4.7-8.4c0-0.1,1.9-0.7,5.7-1.6c1.5-0.4,2.3-1.3,2.3-2.8c0-2-10.2-5.2-30.7-9.8
				c-3,21.3-11.6,40.4-25.9,57.4l1.8,2.4c7.3-2.9,13.8-6.6,19.5-10.9c1.9,1.5,3,3.5,3.4,6.1c0.8,5.2,1.8,10.4,2.8,15.5
				c0.9,4.7,3.9,7.3,8.6,8.5C57,120.3,64,120,71,119.7c5.9-0.2,10-3,13.2-7.6c0.2-0.2,0.3-0.5,0.5-0.7c1.9,2.4,4,5.4,5.3,12.8
				c0.3,1.8,1.2,3.5,2.6,4.6l-51.1-0.2c-0.2-3.5-1.2-7.6-2.9-12.4l-3,0.6v0.2c0,8.8-5.1,15.6-15.3,20.6c-4.5,2.3-6.8,6.4-6.8,12.3
				c0,8.5,4.2,12.8,12.6,12.8c4.3,0,7.9-1.6,10.8-4.8c2.9-3.1,4.3-5.9,4.3-8.6c0.4,0.4,0.5,3.9,0.5,10.4c0.4,12.1,0.5,19.2,0.5,21.3
				v22.7c0,6.8-0.3,20.7-0.9,41.9c0,3.1,2.6,4.6,7.7,4.6c11.1,0,16.7-2.3,16.7-6.8V237h69.1v8.6c0,2.9,2.3,4.4,6.8,4.4
				c11.6,0,17.4-2.3,17.4-7v-0.4c-0.6-11.1-0.9-17.8-0.9-19.9v-8.6c0-0.5,0.7-1.4,2-2.6c2.6-2,4-3.6,4-5c0-1.8-2.9-4.8-8.6-8.8
				c-5.9-4-9.5-6-11-6c-1.2,0-4.9,3.5-11.3,10.6H65.8v-18.1h59.4v2.6c0,2.9,2.1,4.4,6.5,4.4c11.7,0,17.6-2.3,17.6-6.8v-0.2
				c-0.5-11-0.7-17.2-0.7-18.5v-2c0-1.2,1.3-2.9,3.9-5c1.1-0.8,1.6-1.8,1.6-3s-1.5-3-4.5-5.4c6.9-2.5,14.4-6,22.2-10.4
				c0.1-0.1,0.7-0.2,1.8-0.2c5.4,0,8.1-1.3,8.1-4C181.8,134,178.5,130.4,172.1,125z M109,92.9c0.4-4.2,2.5-7.3,6.8-8.5
				c3.8-1.1,7.7-1.6,11.7-1.4c3.3,0.2,6.6,0,9.8,0.3c2.4,0.2,4.7,0.7,7.1,1.1c2,0.3,3.1,1.6,3.8,3.4c1.5,3.7,1.4,7.7,0.9,11.5
				c-0.2,2-0.8,3.9-1.1,5.8c-1,5.6-4.7,8.4-10.1,9.3c-2.2,0.4-4.4,0.5-5.6,0.6c-5.1-0.1-9-0.3-12.7-2c-1.2-0.5-2.4-1.1-3.3-2
				C111.8,106,108.3,100.2,109,92.9z M79.3,109.7c-1.5,2.1-3.7,3.4-6.2,4c-6.4,1.8-12.8,2-19.2,0.2c-4-1.1-6.6-3.6-7.6-7.6
				c-1.2-4.6-2-9.2-1.5-14c0.6-5.8,2.4-7.8,8.3-8.5c1.7-0.2,3.4-0.4,5.2-0.5c5.7-0.4,11.4-0.2,17.1,0.5c8.4,1.1,10.8,6.4,9.6,13.8
				C84.2,102.1,81.9,106,79.3,109.7z M134.9,207.3v25.1H65.8v-25.1H134.9z M125.2,179.4H65.8v-22.9h59.4V179.4z M144.8,146.5
				c-5.5-4.1-8.7-6.2-9.5-6.2c-1.1,0-5.1,3.8-12,11.4h-56c-6.1-2.4-14.5-5.2-25.3-8.4c0.1-1.5,0.2-3,0.2-4.8V134h105
				C146.9,138.3,146.1,142.5,144.8,146.5z"/>
		</g>
		<g>
			<path class="st2" d="M391.8,139.3c-1.1-5.2-4.7-9.8-9.4-12.3c-2.7-1.5-5.7-2.3-8.8-2.1c-3.3,0.2-6.7,1.5-8.8,4.1
				c-1.6,2-2.5,4.6-2.8,7.2c-0.4,2.9-0.5,3.9-3.9,3.6c-6.3-0.5-12.7-0.9-19-1.2c1.8-1.6,2.7-4.2,2.7-7.8c0-9.3-7-13.9-21-13.9
				c-2,0-3.8,0.1-5.4,0.2l-0.7,2.2c5,1.7,8.5,6.6,10.4,14.5c0.4,1.8,1,3.3,1.8,4.5c-7.4-0.1-14.8-0.1-22.3,0.1
				c-1.6,0-3.3,0.1-4.9,0.1c-0.6-6.6-0.9-11.8-0.9-15.8c0-0.5,1.6-1.5,4.8-2.8c1.1-0.4,1.6-1.3,1.6-2.6c0-2.1-10.2-4.5-30.5-7
				c0.8,4.4,1.4,8.3,1.6,11.8c0.6,6.8,1.1,12.5,1.6,17.1c-8.7,0.4-17.3,1-25.9,2.1c-1.2,0.1-2.3,0.3-3.5,0.5c-5-1.3-8.6-2.3-11-2.9
				c-3.1-1-7.3-1.9-12.6-3c1.1,10.6,1.6,23.1,1.6,37.5c0,34.8-6.9,59.6-20.8,74.4l1.8,2.4c12.7-5.2,22.9-13.7,30.7-25.5
				c7.9-11.8,11.8-30.6,11.8-56.2v-17.9c8.6-0.9,17.4-1.7,26.2-2.2h2.9c2.9,22.7,8.7,41.8,17.6,57.2c-12.1,13.7-30.6,26.1-55.4,37.3
				l0.9,2.4c24.6-2.3,46.4-10.2,65.3-23.9c5.2,7.4,12.7,14,22.6,19.5c9.9,5.6,19.3,8.4,28.2,8.4c10.4,0,15.6-3.6,15.6-10.8
				c0-2.5-1.3-5.5-3.8-8.8c-2.5-3.5-3.8-6.6-3.8-9.4v-2c0-6.5,0.4-12.8,1.1-18.9l-2.9-0.8c-1.2,4.8-2.8,10-4.8,15.8
				c-1.9,5.7-4.4,8.6-7.3,8.6c-4.6,0-10.1-2.3-16.5-6.8c-6.4-4.5-9.7-7.5-9.7-9c8.4-8.9,15.1-19.7,20.3-32.5c0-0.1,2.3-0.2,6.8-0.2
				c1.7,0,2.5-0.9,2.5-2.6c0-1.6-8.9-7.7-26.6-18.4c-3.7,13.6-9,25.3-15.8,35.3c-6.2-10.4-10.3-23.9-12.4-40.7l-0.1-0.3
				c15.7,0.3,31.8,0.6,47,4.5c3.5,0.9,7,2,10.4,3.3c7.2,2.7,14.7,6.3,22.1,4.4c4.2-1.1,7.9-4,10.1-7.8
				C392.9,148.3,392.6,143.6,391.8,139.3z M368.4,133.2c1.5-5.9,17.9-2.1,16.6,4.5C383.8,143.3,366.5,140.5,368.4,133.2z"/>
			<g>
				<path class="st2" d="M238.7,64.6c0.9-12.5,0.3-25.8,4.4-37.5c3.4-9.5,9.5-13.1,19.4-11.2c5.9,1.2,11.9,3.6,17.7,5.1
					c6,1.5,11.4,0.2,16.2-3.6c3.7-2.9,7.8-6.1,12.5-7c3.2-0.6,5.7,0.3,7.7,2.6c1.6,1.9,3.1,3.9,4.2,6.1c5.5,10.6,8.6,23.2,12,34.7
					c-11.8,3.7-23.7,6.4-35.9,5.7c-17.4-1-34.6-0.1-51.6,3.6C243.2,63.6,241.2,64.1,238.7,64.6z"/>
				<path class="st2" d="M368.4,74c-0.1,3.5-3.4,5.3-6.3,6.4c-10,3.4-20.3,5.9-30.6,7.7l-0.1,3.3v1.2c0,1.3,0.2,6.2,0.5,14.5v0.2
					c0,3.2-5.8,4.8-17.2,4.8c-4.3,0-6.5-1.3-6.5-3.8V108c0.2-4.5,0.4-9.5,0.4-14.8v-1.7c-4.2,0.5-8.4,1-12.6,1.4
					c-8.6,0.8-17.2,1.6-25.8,2.1c0,6.1,0.1,11.2,0.4,15.4v0.2c0,3.7-5.6,5.6-16.9,5.6c-4.5,0-6.8-1.4-6.8-4.2v-0.4
					c0.5-6.2,0.7-11.5,0.7-15.9c-6.7,0-13.3-0.3-20-0.9c-3.7-0.3-7.3-0.8-10.9-1.5c-3.2-0.6-8.9-2.7-4.6-6.3
					c0.8-0.7,1.7-1.3,2.6-1.7c7.2-2.6,14.5-5.2,22.4-7.9c-0.3,2-0.4,2.9-0.5,3.8c22.6-1.7,45.3-3.2,68-4.8c11-0.7,22.2-1.1,33.1-2.8
					c3.2-0.5,6.7-1.1,9.8-2.1c0-0.7-0.5-1.2-0.9-1.8c-1.2-2-0.2-2.1,1.6-1.7c2,0.4,3.9,0.7,5.9,1.1c3.8,0.7,7.6,1.4,11.4,2.3
					C366.5,71.5,368.4,73.1,368.4,74z"/>
			</g>
			<g>
				<path class="st2" d="M380.2,117.5c-0.6-5.3-0.7-13.6,2-18.5c3.3-5.9,6.1-6.4,8.5-10c9.7-14.1-6.4-25-6.6-25.5
					c4.2,10,0.5,18.3-6.6,25.8c-3,3.1-6.2,6.7-6.6,11.2C370.3,107.3,374.8,113.9,380.2,117.5z"/>
			</g>
		</g>
	</g>
</g>
</svg>
