<?xml version="1.0" encoding="utf-8"?>
<!-- Generator: Adobe Illustrator 21.0.0, SVG Export Plug-In . SVG Version: 6.00 Build 0)  -->
<svg version="1.1" id="圖層_1" xmlns="http://www.w3.org/2000/svg" xmlns:xlink="http://www.w3.org/1999/xlink" x="0px" y="0px"
	 viewBox="0 0 283.5 283.5" style="enable-background:new 0 0 283.5 283.5;" xml:space="preserve">
<style type="text/css">
	.st0{fill:#FF0000;}
	.st1{fill:#FFFFFF;}
</style>
<g>
	<polygon class="st0" points="39.5,255.1 16.8,0 266.7,0 244,255.1 141.6,283.5 	"/>
	<polygon points="141.8,261.8 224.5,238.9 243.9,20.9 141.8,20.9 	"/>
	<polygon class="st1" points="141.8,115.5 100.3,115.5 97.5,83.5 141.8,83.5 141.8,52.2 141.6,52.2 63.3,52.2 64,60.6 71.7,146.8 
		141.8,146.8 	"/>
	<polygon class="st1" points="141.8,196.8 141.6,196.8 106.8,187.4 104.5,162.4 87.6,162.4 73.1,162.4 77.5,211.6 141.6,229.4 
		141.8,229.3 	"/>
	<polygon class="st1" points="141.6,115.5 141.6,146.8 180.2,146.8 176.5,187.4 141.6,196.8 141.6,229.3 205.8,211.6 206.3,206.3 
		213.6,123.9 214.4,115.5 205.9,115.5 	"/>
	<polygon class="st1" points="141.6,52.2 141.6,71.6 141.6,83.4 141.6,83.5 217.1,83.5 217.1,83.5 217.2,83.5 217.9,76.4 
		219.3,60.6 220,52.2 	"/>
</g>
</svg>
