<?xml version="1.0" encoding="utf-8"?>
<!-- Generator: Adobe Illustrator 21.0.0, SVG Export Plug-In . SVG Version: 6.00 Build 0)  -->
<svg version="1.1" id="圖層_1" xmlns="http://www.w3.org/2000/svg" xmlns:xlink="http://www.w3.org/1999/xlink" x="0px" y="0px"
	 viewBox="0 0 283.5 283.5" style="enable-background:new 0 0 283.5 283.5;" xml:space="preserve">
<style type="text/css">
	.st0{fill:#FFFFFF;}
</style>
<g>
	<path class="st0" d="M232.2,0H51.7C23.3,0,0,22.9,0,51.3v180.5c0,28.4,22.9,51.6,51.3,51.7h180.5c28.4,0,51.6-22.9,51.7-51.3V51.7
		C283.5,23.3,260.6,0,232.2,0z M248.4,186c-0.5,11.4-2.3,19.2-5,26c-2.7,7-6.4,13-12.3,19c-6,5.9-12,9.6-19,12.3
		c-6.8,2.6-14.6,4.5-26,5c-11.4,0.5-15.1,0.7-44.2,0.7c-29.1,0-32.8-0.2-44.2-0.7c-11.4-0.5-19.2-2.4-26-5c-7-2.7-13-6.4-19-12.3
		c-5.9-6-9.6-12-12.3-19c-2.7-6.8-4.5-14.6-5-26c-0.5-11.4-0.7-15.1-0.7-44.2s0.1-32.8,0.6-44.2c0.5-11.4,2.3-19.2,5-26
		c2.8-7,6.4-13.2,12.4-19.1c6-5.9,12-9.6,19-12.3c6.8-2.7,14.6-4.5,26-4.9c11.4-0.5,15.1-0.7,44.2-0.7c29.1,0,32.9,0.2,44.2,0.7
		c11.4,0.5,19.2,2.4,26,5c7,2.7,13.1,6.4,19,12.3c5.9,6,9.6,12,12.3,19c2.7,6.8,4.5,14.6,5,26c0.5,11.4,0.6,15.1,0.6,44.2
		S248.9,174.5,248.4,186z"/>
	<path class="st0" d="M229.2,98.4c-0.5-10.5-2.3-16.1-3.7-19.9c-2-5-4.2-8.6-8-12.3c-3.8-3.8-7.3-6.1-12.3-8
		c-3.8-1.5-9.5-3.3-19.9-3.7c-11.4-0.5-14.7-0.6-43.4-0.6s-32.1,0.1-43.4,0.6c-10.5,0.5-16.1,2.3-19.9,3.7c-5,2-8.5,4.2-12.3,8
		c-3.8,3.8-6,7.3-8,12.3c-1.5,3.8-3.3,9.5-3.7,19.9c-0.5,11.3-0.6,14.7-0.6,43.4s0.1,32.1,0.6,43.4c0.5,10.5,2.3,16.1,3.7,19.9
		c2,5,4.2,8.6,8,12.3c3.8,3.8,7.4,6.1,12.3,8c3.8,1.5,9.5,3.3,19.9,3.7c11.3,0.5,14.7,0.6,43.4,0.6s32.1-0.1,43.4-0.6
		c10.4-0.5,16.1-2.3,19.9-3.7c5-2,8.5-4.2,12.3-8c3.8-3.8,6.1-7.3,8-12.3c1.5-3.8,3.3-9.5,3.7-19.9c0.5-11.3,0.6-14.7,0.6-43.4
		S229.8,109.7,229.2,98.4z M141.9,196.9c-30.4,0-55.1-24.7-55.1-55.1s24.6-55,55-55s55.2,24.6,55.2,55S172.3,196.9,141.9,196.9z
		 M199.1,97.4c-7.1,0-12.9-5.8-12.9-12.9c0-3.6,1.4-6.8,3.8-9.1c2.3-2.3,5.6-3.8,9.1-3.8c7.1,0,12.9,5.8,12.9,12.9
		C212,91.6,206.2,97.4,199.1,97.4z"/>
	<path class="st0" d="M177.5,141.8c0,19.7-16,35.8-35.7,35.8c-19.8,0-35.7-16-35.7-35.8s16-35.7,35.7-35.7
		C161.5,106,177.5,122.1,177.5,141.8z"/>
</g>
</svg>
