<?xml version="1.0" encoding="utf-8"?>
<!-- Generator: Adobe Illustrator 21.0.0, SVG Export Plug-In . SVG Version: 6.00 Build 0)  -->
<svg version="1.1" id="圖層_1" xmlns="http://www.w3.org/2000/svg" xmlns:xlink="http://www.w3.org/1999/xlink" x="0px" y="0px"
	 viewBox="0 0 283.5 283.5" style="enable-background:new 0 0 283.5 283.5;" xml:space="preserve">
<style type="text/css">
	.st0{fill:#FFFFFF;}
</style>
<g>
	<path class="st0" d="M232.2,0H51.7C23.3,0,0,22.9,0,51.3v180.5c0,28.4,22.9,51.6,51.3,51.7h180.5c28.4,0,51.6-22.9,51.7-51.3V51.7
		C283.5,23.3,260.6,0,232.2,0z M222.4,180.8L222.4,180.8c-21.6,24.9-70.1,55.3-81.1,59.9c-11,4.6-9.4-3-8.9-5.6
		c0.3-1.5,1.5-8.8,1.5-8.8c0.3-2.6,0.7-6.7-0.3-9.3c-1.2-2.9-5.7-4.4-9.1-5.1c-49.6-6.6-86.3-41.2-86.3-82.6
		c0-46.2,46.3-83.8,103.2-83.8s103.2,37.6,103.2,83.8C244.5,147.7,237.3,164.4,222.4,180.8z"/>
	<path id="path7968_1_" class="st0" d="M120.3,107h-7.2c-1.1,0-2,0.9-2,2v45c0,1.1,0.9,2,2,2h7.2c1.1,0,2-0.9,2-2v-45
		C122.3,107.9,121.4,107,120.3,107"/>
	<path id="path7972_1_" class="st0" d="M170.1,107h-7.2c-1.1,0-2,0.9-2,2v26.7l-20.6-27.8c0-0.1-0.1-0.1-0.2-0.2l0,0
		c0,0-0.1-0.1-0.1-0.1c0,0,0,0,0,0c0,0-0.1-0.1-0.1-0.1c0,0,0,0-0.1,0c0,0-0.1,0-0.1-0.1c0,0,0,0-0.1,0c0,0-0.1,0-0.1-0.1
		c0,0,0,0-0.1,0c0,0-0.1,0-0.1,0c0,0,0,0-0.1,0c0,0-0.1,0-0.1,0c0,0,0,0-0.1,0c0,0-0.1,0-0.1,0c0,0-0.1,0-0.1,0c0,0-0.1,0-0.1,0
		c0,0-0.1,0-0.1,0c0,0,0,0-0.1,0h-7.2c-1.1,0-2,0.9-2,2v45c0,1.1,0.9,2,2,2h7.2c1.1,0,2-0.9,2-2v-26.7l20.6,27.9
		c0.1,0.2,0.3,0.4,0.5,0.5c0,0,0,0,0,0c0,0,0.1,0.1,0.1,0.1c0,0,0,0,0.1,0c0,0,0.1,0,0.1,0c0,0,0.1,0,0.1,0c0,0,0,0,0.1,0
		c0,0,0.1,0,0.1,0c0,0,0,0,0,0c0.2,0,0.3,0.1,0.5,0.1h7.2c1.1,0,2-0.9,2-2v-45C172.1,107.9,171.2,107,170.1,107"/>
	<path id="path7976_1_" class="st0" d="M102.8,144.7H83.2V109c0-1.1-0.9-2-2-2h-7.2c-1.1,0-2,0.9-2,2v45v0c0,0.5,0.2,1,0.6,1.4
		c0,0,0,0,0,0c0,0,0,0,0,0c0.4,0.3,0.8,0.6,1.4,0.6h0h28.9c1.1,0,2-0.9,2-2v-7.2C104.9,145.6,104,144.7,102.8,144.7"/>
	<path id="path7980_1_" class="st0" d="M210.1,118.2c1.1,0,2-0.9,2-2V109c0-1.1-0.9-2-2-2h-28.9h0c-0.5,0-1,0.2-1.4,0.6c0,0,0,0,0,0
		c0,0,0,0,0,0c-0.3,0.4-0.6,0.8-0.6,1.4v0v45v0c0,0.5,0.2,1,0.6,1.4c0,0,0,0,0,0c0,0,0,0,0,0c0.4,0.3,0.8,0.6,1.4,0.6h0h28.9
		c1.1,0,2-0.9,2-2v-7.2c0-1.1-0.9-2-2-2h-19.7v-7.6h19.7c1.1,0,2-0.9,2-2v-7.2c0-1.1-0.9-2-2-2h-19.7v-7.6H210.1z"/>
</g>
</svg>
