<?xml version="1.0" encoding="utf-8"?>
<!-- Generator: Adobe Illustrator 21.0.0, SVG Export Plug-In . SVG Version: 6.00 Build 0)  -->
<svg version="1.1" id="圖層_1" xmlns="http://www.w3.org/2000/svg" xmlns:xlink="http://www.w3.org/1999/xlink" x="0px" y="0px"
	 viewBox="0 0 283.5 283.5" style="enable-background:new 0 0 283.5 283.5;" xml:space="preserve">
<style type="text/css">
	.st0{fill:#FF0000;}
	.st1{fill:#FFFFFF;}
</style>
<g>
	<g>
		<ellipse class="st0" cx="141.7" cy="141.7" rx="141.7" ry="141.7"/>
		<path d="M141.7,269.3c-70.3,0-127.6-57.2-127.6-127.6S71.4,14.2,141.7,14.2s127.6,57.2,127.6,127.6S212.1,269.3,141.7,269.3z"/>
	</g>
	<g>
		<path class="st1" d="M192.1,116.4c-9.5,0-12.8,4.8-12.8,8.8c0,4.3,2.2,7.4,14.9,14c18.9,9.2,24.8,18,24.8,30.9
			c0,19.3-14.7,29.6-34.6,29.6c-10.5,0-19.5-2.2-24.7-5.2c-0.8-0.4-1-1-1-1.9v-17.7c0-1.2,0.6-1.6,1.4-1c7.6,4.9,16.3,7.1,24.2,7.1
			c9.5,0,13.5-4,13.5-9.4c0-4.3-2.8-8.2-14.9-14.5c-17.1-8.2-24.2-16.5-24.2-30.4c0-15.5,12.2-28.4,33.3-28.4
			c10.4,0,17.6,1.6,21.6,3.4c1,0.6,1.2,1.6,1.2,2.4v16.5c0,1-0.6,1.6-1.8,1.2C207.8,118.5,199.9,116.4,192.1,116.4L192.1,116.4z
			 M88.5,130.8c2.8,0.2,4.9,0.2,9.8,0.2c14.1,0,27.4-4.9,27.4-24.1c0-15.3-9.5-23-25.5-23c-4.8,0-9.4,0.2-11.6,0.4v46.5H88.5z
			 M67,66.8c0-0.8,1.7-1.4,2.7-1.4c7.7-0.4,19.2-0.6,31.1-0.6c33.4,0,46.4,18.3,46.4,41.7c0,30.6-22.2,43.7-49.4,43.7
			c-4.6,0-6.1-0.2-9.4-0.2v46.3c0,1-0.4,1.4-1.4,1.4H68.5c-1,0-1.4-0.4-1.4-1.4L67,66.8L67,66.8z"/>
	</g>
</g>
</svg>
